<svg xmlns="http://www.w3.org/2000/svg" xmlns:xlink="http://www.w3.org/1999/xlink" version="1.1" x="0px" y="0px" viewBox="0 0 100 125" style="enable-background:new 0 0 100 100;" xml:space="preserve"><g><path d="M81.5,73.5v-47c0-0.6-0.3-1.2-0.7-1.6c-0.5-0.4-1.1-0.5-1.7-0.4l-18.4,3.9l-19.4-7.8c0,0-0.1,0-0.1,0   c-0.1,0-0.2-0.1-0.3-0.1c-0.1,0-0.1,0-0.2,0c-0.1,0-0.2,0-0.3,0c-0.1,0-0.1,0-0.2,0c-0.1,0-0.1,0-0.2,0l-20,6   c-0.8,0.3-1.4,1-1.4,1.9v47c0,0.6,0.3,1.2,0.8,1.6c0.3,0.3,0.8,0.4,1.2,0.4c0.2,0,0.4,0,0.6-0.1l19.3-5.8l19.4,7.7c0,0,0,0,0,0   c0.1,0,0.2,0.1,0.2,0.1c0,0,0.1,0,0.1,0c0.1,0,0.2,0,0.4,0c0.1,0,0.3,0,0.4,0l19-4C80.8,75.3,81.5,74.4,81.5,73.5z M22.5,30l16-4.8   V68l-16,4.8V30z M42.5,25.5l16,6.4v42.7l-16-6.4V25.5z M77.5,71.9l-15,3.2V32.1l15-3.2V71.9z"/></g><text x="0" y="115" fill="#000000" font-size="5px" font-weight="bold" font-family="'Helvetica Neue', Helvetica, Arial-Unicode, Arial, Sans-serif">Created by Shastry</text><text x="0" y="120" fill="#000000" font-size="5px" font-weight="bold" font-family="'Helvetica Neue', Helvetica, Arial-Unicode, Arial, Sans-serif">from the Noun Project</text></svg>