<svg xmlns="http://www.w3.org/2000/svg" viewBox="0 0 96 120" x="0px" y="0px"><title>Arrows-right - Bold</title><g data-name="Layer 1"><path d="M48,10A24,24,0,0,0,24,34c0,5.37,1.45,11.18,3.56,16.94A139.14,139.14,0,0,0,39.33,74.5c3.91,6.4,7,10.65,7.05,10.69L48,87.42l1.6-2.26A198.08,198.08,0,0,0,60.76,67.08a130.08,130.08,0,0,0,7.68-16.56C70.54,44.81,72,39.13,72,34A24,24,0,0,0,48,10ZM64.69,49.13a145,145,0,0,1-11.44,23c-1.91,3.19-3.64,5.87-4.88,7.75l-.39.58A181.79,181.79,0,0,1,38.24,64.6,115.28,115.28,0,0,1,31.13,49,46.25,46.25,0,0,1,28,34a20,20,0,0,1,40,0C68,38.37,66.71,43.69,64.69,49.13ZM48,22A12,12,0,1,0,60,34,12,12,0,0,0,48,22Zm5.66,17.66A8,8,0,1,1,56,34,8,8,0,0,1,53.66,39.66Z"/></g><text x="0" y="111" fill="#000000" font-size="5px" font-weight="bold" font-family="'Helvetica Neue', Helvetica, Arial-Unicode, Arial, Sans-serif">Created by olcay kurtulus</text><text x="0" y="116" fill="#000000" font-size="5px" font-weight="bold" font-family="'Helvetica Neue', Helvetica, Arial-Unicode, Arial, Sans-serif">from the Noun Project</text></svg>