<svg xmlns="http://www.w3.org/2000/svg" xmlns:xlink="http://www.w3.org/1999/xlink" version="1.1" x="0px" y="0px" viewBox="0 0 100 125" enable-background="new 0 0 100 100" xml:space="preserve"><g><g><g><path fill="#000000" d="M29.8,46.2c13.5,0,27,0,40.5,0c1.6,0,1.6-2.5,0-2.5c-13.5,0-27,0-40.5,0C28.2,43.8,28.2,46.2,29.8,46.2     L29.8,46.2z"/></g></g><g><g><path fill="#000000" d="M29.8,46.2c13.5,0,27,0,40.5,0c1.6,0,1.6-2.5,0-2.5c-13.5,0-27,0-40.5,0C28.2,43.8,28.2,46.2,29.8,46.2     L29.8,46.2z"/></g></g><g><g><path fill="#000000" d="M29.8,36.2c13.5,0,27,0,40.5,0c1.6,0,1.6-2.5,0-2.5c-13.5,0-27,0-40.5,0C28.2,33.8,28.2,36.2,29.8,36.2     L29.8,36.2z"/></g></g><g><g><path fill="#000000" d="M29.8,56.2c10.7,0,21.5,0,32.2,0c1.6,0,1.6-2.5,0-2.5c-10.7,0-21.5,0-32.2,0     C28.2,53.8,28.2,56.2,29.8,56.2L29.8,56.2z"/></g></g><g><g><path fill="#000000" d="M29.8,66.2c6.7,0,13.5,0,20.2,0c1.6,0,1.6-2.5,0-2.5c-6.7,0-13.5,0-20.2,0C28.2,63.8,28.2,66.2,29.8,66.2     L29.8,66.2z"/></g></g></g><text x="0" y="115" fill="#000000" font-size="5px" font-weight="bold" font-family="'Helvetica Neue', Helvetica, Arial-Unicode, Arial, Sans-serif">Created by Ramakrishna Venkatesan</text><text x="0" y="120" fill="#000000" font-size="5px" font-weight="bold" font-family="'Helvetica Neue', Helvetica, Arial-Unicode, Arial, Sans-serif">from the Noun Project</text></svg>