<svg xmlns="http://www.w3.org/2000/svg" xmlns:xlink="http://www.w3.org/1999/xlink" version="1.1" x="0px" y="0px" viewBox="0 0 100 125" enable-background="new 0 0 100 100" xml:space="preserve"><path d="M59.25,50.999H52.5v-39.25c0-1.381-1.119-2.5-2.5-2.5s-2.5,1.119-2.5,2.5v39.25h-6.75c-1.381,0-2.5,1.119-2.5,2.5v18.5  c0,1.381,1.119,2.5,2.5,2.5h6.75v13.25c0,1.381,1.119,2.5,2.5,2.5s2.5-1.119,2.5-2.5v-13.25h6.75c1.381,0,2.5-1.119,2.5-2.5v-18.5  C61.75,52.118,60.631,50.999,59.25,50.999z M56.75,69.499h-13.5v-13.5h13.5V69.499z M29.25,24.999H22.5v-13.25  c0-1.381-1.119-2.5-2.5-2.5s-2.5,1.119-2.5,2.5v13.25h-6.75c-1.381,0-2.5,1.119-2.5,2.5v18.5c0,1.381,1.119,2.5,2.5,2.5h6.75v39.25  c0,1.381,1.119,2.5,2.5,2.5s2.5-1.119,2.5-2.5v-39.25h6.75c1.381,0,2.5-1.119,2.5-2.5v-18.5  C31.75,26.118,30.631,24.999,29.25,24.999z M26.75,43.499h-13.5v-13.5h13.5V43.499z M89.25,24.999H82.5v-13.25  c0-1.381-1.119-2.5-2.5-2.5s-2.5,1.119-2.5,2.5v13.25h-6.75c-1.381,0-2.5,1.119-2.5,2.5v18.5c0,1.381,1.119,2.5,2.5,2.5h6.75v39.25  c0,1.381,1.119,2.5,2.5,2.5s2.5-1.119,2.5-2.5v-39.25h6.75c1.381,0,2.5-1.119,2.5-2.5v-18.5  C91.75,26.118,90.631,24.999,89.25,24.999z M86.75,43.499h-13.5v-13.5h13.5V43.499z"/><text x="0" y="115" fill="#000000" font-size="5px" font-weight="bold" font-family="'Helvetica Neue', Helvetica, Arial-Unicode, Arial, Sans-serif">Created by myladkings</text><text x="0" y="120" fill="#000000" font-size="5px" font-weight="bold" font-family="'Helvetica Neue', Helvetica, Arial-Unicode, Arial, Sans-serif">from the Noun Project</text></svg>